<mxfile host="Electron" modified="2023-09-07T13:23:32.662Z" agent="Mozilla/5.0 (Windows NT 10.0; Win64; x64) AppleWebKit/537.36 (KHTML, like Gecko) draw.io/21.6.8 Chrome/114.0.5735.289 Electron/25.5.0 Safari/537.36" etag="ZztkV6xji52EAtuC304E" version="21.6.8" type="device">
  <diagram name="Page-1" id="6PSzHdx3V0SB6rLubaUB">
    <mxGraphModel dx="780" dy="544" grid="0" gridSize="10" guides="1" tooltips="1" connect="1" arrows="1" fold="1" page="1" pageScale="1" pageWidth="850" pageHeight="1100" background="#990000" math="0" shadow="0">
      <root>
        <mxCell id="0" />
        <mxCell id="1" parent="0" />
        <mxCell id="Chw0kRsyiyzLXfeFCmba-1" value="&lt;b&gt;DATA INPUT FOR MODELLING&lt;/b&gt;" style="rounded=0;whiteSpace=wrap;html=1;fillColor=#330000;strokeColor=#FFFFFF;strokeWidth=2;gradientColor=none;gradientDirection=east;" vertex="1" parent="1">
          <mxGeometry x="18" y="16" width="198" height="540" as="geometry" />
        </mxCell>
        <mxCell id="Chw0kRsyiyzLXfeFCmba-2" value="&lt;b&gt;WELCOME MESSAGE&lt;/b&gt;" style="rounded=1;whiteSpace=wrap;html=1;strokeWidth=1;fillColor=#330000;gradientColor=default;" vertex="1" parent="1">
          <mxGeometry x="251" y="15" width="518" height="108" as="geometry" />
        </mxCell>
        <mxCell id="Chw0kRsyiyzLXfeFCmba-3" value="&lt;b&gt;A BRIEF INTRODUCTION OF THE PROJECT&lt;/b&gt;" style="rounded=1;whiteSpace=wrap;html=1;fillColor=#330000;gradientColor=default;" vertex="1" parent="1">
          <mxGeometry x="251" y="150" width="518" height="100" as="geometry" />
        </mxCell>
        <mxCell id="Chw0kRsyiyzLXfeFCmba-4" value="&lt;b&gt;HEATMAP SHOWING CORRELATION MATRIX&lt;/b&gt;" style="rounded=1;whiteSpace=wrap;html=1;gradientColor=default;" vertex="1" parent="1">
          <mxGeometry x="255" y="278" width="518" height="38" as="geometry" />
        </mxCell>
        <mxCell id="Chw0kRsyiyzLXfeFCmba-6" value="&lt;b&gt;DATA INPUTS&lt;/b&gt;" style="rounded=1;whiteSpace=wrap;html=1;gradientColor=default;" vertex="1" parent="1">
          <mxGeometry x="263" y="350" width="169" height="71" as="geometry" />
        </mxCell>
        <mxCell id="Chw0kRsyiyzLXfeFCmba-7" value="&lt;b&gt;PREDICTION&lt;/b&gt;" style="ellipse;whiteSpace=wrap;html=1;gradientColor=default;" vertex="1" parent="1">
          <mxGeometry x="648" y="341" width="120" height="80" as="geometry" />
        </mxCell>
        <mxCell id="Chw0kRsyiyzLXfeFCmba-8" value="&lt;b&gt;INTERPRETATION OF MODEL OUTPUTS&lt;/b&gt;" style="rounded=1;whiteSpace=wrap;html=1;gradientColor=default;" vertex="1" parent="1">
          <mxGeometry x="255" y="443" width="518" height="100" as="geometry" />
        </mxCell>
      </root>
    </mxGraphModel>
  </diagram>
</mxfile>
